<?xml version="1.0" encoding="utf-8" ?>
<svg baseProfile="tiny" height="100%" version="1.2" width="100%" xmlns="http://www.w3.org/2000/svg" xmlns:ev="http://www.w3.org/2001/xml-events" xmlns:xlink="http://www.w3.org/1999/xlink"><defs /><polygon fill="black" points="0,0 0,436 3,436 4,437 4,438 3,439 0,439 0,511 158,511 158,508 159,507 160,508 160,511 511,511 511,344 510,343 510,340 511,339 511,0 264,0 264,3 263,4 262,3 262,0 220,0 220,3 219,4 218,3 218,0 128,0 128,3 127,4 126,3 126,0" stroke="black" stroke-width="1" /></svg>